<?xml version="1.0" standalone="no"?>
<!DOCTYPE svg PUBLIC "-//W3C//DTD SVG 20010904//EN"
 "http://www.w3.org/TR/2001/REC-SVG-20010904/DTD/svg10.dtd">
<svg version="1.0" xmlns="http://www.w3.org/2000/svg"
 width="225.000000pt" height="225.000000pt" viewBox="0 0 225.000000 225.000000"
 preserveAspectRatio="xMidYMid meet">

<g transform="translate(0.000000,225.000000) scale(0.100000,-0.100000)"
fill="#000000" stroke="none">
<path d="M530 1545 l0 -115 65 0 c58 0 65 2 65 20 0 17 -7 20 -40 20 -38 0
-40 2 -40 30 0 28 3 30 36 30 28 0 35 3 32 18 -2 11 -14 18 -36 20 -26 3 -32
7 -32 28 0 21 4 24 40 24 33 0 40 3 40 20 0 18 -7 20 -65 20 l-65 0 0 -115z"/>
<path d="M680 1656 c0 -2 11 -28 24 -56 l25 -53 -25 -55 c-13 -30 -24 -56 -24
-58 0 -2 11 -4 26 -4 20 0 28 8 41 37 l15 38 15 -38 c12 -28 21 -37 39 -37 29
0 30 9 4 60 -26 50 -25 60 5 120 l25 50 -29 0 c-24 0 -31 -6 -44 -37 l-15 -38
-15 38 c-13 29 -21 37 -41 37 -15 0 -26 -2 -26 -4z"/>
<path d="M870 1545 l0 -115 25 0 c23 0 25 4 25 40 0 39 1 40 34 40 69 0 99 88
45 133 -14 11 -38 17 -75 17 l-54 0 0 -115z m100 60 c18 -22 3 -55 -26 -55
-21 0 -24 5 -24 35 0 28 4 35 19 35 10 0 24 -7 31 -15z"/>
<path d="M1060 1545 l0 -115 25 0 c23 0 25 4 25 40 0 22 4 40 9 40 5 0 16 -18
25 -40 13 -32 21 -40 41 -40 29 0 29 -1 10 48 -14 34 -14 41 0 68 20 39 19 56
-6 88 -18 22 -28 26 -75 26 l-54 0 0 -115z m93 53 c8 -12 7 -21 -2 -32 -23
-28 -41 -19 -41 20 0 28 4 35 16 32 9 -2 22 -10 27 -20z"/>
<path d="M1240 1545 l0 -115 65 0 c58 0 65 2 65 20 0 17 -7 20 -40 20 -38 0
-40 2 -40 30 0 28 3 30 35 30 28 0 35 4 35 20 0 16 -7 20 -35 20 -31 0 -35 3
-35 25 0 23 4 25 40 25 33 0 40 3 40 20 0 18 -7 20 -65 20 l-65 0 0 -115z"/>
<path d="M1417 1642 c-34 -37 -20 -85 34 -112 44 -23 51 -32 43 -54 -8 -22
-31 -20 -46 4 -7 11 -23 20 -35 20 -27 0 -27 -1 -12 -34 25 -54 117 -54 141
-1 16 36 -2 70 -52 95 -26 13 -40 27 -40 40 0 24 35 28 44 5 6 -16 56 -21 56
-6 0 4 -9 20 -21 35 -25 32 -86 37 -112 8z"/>
<path d="M1596 1647 c-18 -13 -25 -65 -12 -86 4 -6 25 -20 47 -31 37 -20 52
-51 30 -64 -14 -9 -41 4 -41 20 0 8 -10 14 -25 14 -28 0 -32 -16 -10 -47 31
-44 119 -36 131 13 11 42 -4 71 -49 96 -46 26 -55 51 -19 56 15 2 22 -2 22
-12 0 -10 9 -16 25 -16 30 0 34 29 7 53 -22 20 -81 22 -106 4z"/>
<path d="M1040 983 c0 -229 -7 -298 -32 -315 -7 -5 -33 -7 -58 -4 -33 3 -51
11 -68 32 l-24 28 -55 -30 c-30 -16 -57 -32 -59 -35 -8 -14 58 -89 101 -114
80 -47 205 -44 270 7 60 47 65 75 65 381 l0 277 -70 0 -70 0 0 -227z"/>
<path d="M1394 1191 c-89 -40 -127 -147 -90 -246 22 -57 60 -88 173 -140 90
-42 113 -64 113 -104 0 -82 -164 -79 -202 4 -6 14 -14 25 -17 25 -13 0 -111
-71 -111 -81 0 -5 21 -32 46 -59 53 -57 110 -80 194 -80 113 0 201 47 229 123
17 43 13 117 -8 163 -23 51 -61 80 -171 134 -47 23 -93 49 -102 58 -40 34 -5
102 52 102 18 0 42 -11 63 -30 l34 -29 51 35 c57 38 58 47 10 91 -58 54 -184
70 -264 34z"/>
</g>
</svg>
