<?xml version="1.0" standalone="no"?>
<!DOCTYPE svg PUBLIC "-//W3C//DTD SVG 20010904//EN"
 "http://www.w3.org/TR/2001/REC-SVG-20010904/DTD/svg10.dtd">
<svg version="1.0" xmlns="http://www.w3.org/2000/svg"
 width="2048.000000pt" height="2048.000000pt" viewBox="0 0 2048.000000 2048.000000"
 preserveAspectRatio="xMidYMid meet">

<g transform="translate(0.000000,2048.000000) scale(0.100000,-0.100000)"
fill="#000000" stroke="none">
<path d="M0 10240 l0 -10240 10240 0 10240 0 0 10240 0 10240 -10240 0 -10240
0 0 -10240z m16685 9657 c758 -100 1419 -389 1965 -862 189 -164 412 -403 551
-592 392 -530 628 -1142 701 -1818 19 -177 19 -12593 0 -12770 -105 -973 -549
-1812 -1292 -2445 -536 -456 -1239 -751 -1985 -832 -177 -19 -12593 -19
-12770 0 -750 81 -1437 370 -1990 836 -110 93 -320 301 -420 416 -479 553
-770 1223 -862 1980 -17 137 -18 490 -18 6420 0 5138 2 6298 13 6400 85 800
428 1562 955 2117 385 406 773 679 1252 881 384 162 785 257 1190 282 66 4
2924 6 6350 6 5813 -2 6239 -3 6360 -19z"/>
<path d="M13015 13435 l-25 -24 0 -1171 c0 -1181 -1 -1200 -34 -1222 -28 -19
-75 1 -271 113 l-210 121 -60 -4 c-57 -4 -75 -13 -370 -183 -170 -98 -420
-242 -555 -320 -702 -404 -692 -398 -719 -439 l-26 -40 -3 -914 c-2 -905 -2
-916 18 -957 11 -24 37 -54 58 -68 32 -21 336 -198 817 -475 72 -41 263 -151
425 -245 280 -163 298 -171 355 -175 l60 -4 215 124 c118 69 307 178 420 243
113 65 230 133 260 150 30 17 114 66 185 107 72 41 207 119 300 173 94 54 181
107 194 119 54 48 51 -88 51 2291 0 2379 3 2242 -51 2292 -20 17 -785 450
-911 514 -51 26 -94 24 -123 -6z m-323 -3601 c139 -81 261 -154 271 -162 15
-14 17 -43 17 -332 0 -272 -2 -319 -15 -330 -9 -7 -48 -32 -88 -54 -400 -231
-450 -258 -467 -253 -26 7 -526 295 -539 311 -8 9 -10 113 -9 335 l3 322 265
154 c146 85 275 154 287 155 11 0 135 -66 275 -146z"/>
<path d="M4144 11286 c-29 -13 -1387 -792 -1509 -865 -39 -24 -67 -50 -82 -76
l-23 -40 0 -1198 c0 -1237 0 -1224 39 -1254 40 -31 70 -16 526 245 248 141
463 266 478 276 16 11 38 37 50 60 22 41 22 47 27 643 l5 601 30 37 c36 44
428 273 490 287 59 13 97 -3 329 -137 169 -97 214 -127 235 -159 l26 -40 5
-600 c6 -667 2 -637 72 -689 29 -22 248 -148 767 -444 99 -56 175 -93 192 -93
15 0 41 11 56 24 l28 24 3 1192 c1 769 -1 1205 -8 1229 -19 71 27 43 -1257
780 -378 217 -408 229 -479 197z"/>
<path d="M16489 11271 c-42 -14 -1541 -881 -1572 -910 -60 -55 -57 1 -57 -997
l0 -916 22 -39 c12 -22 42 -52 67 -68 26 -16 289 -167 586 -336 297 -169 628
-357 735 -419 193 -110 194 -111 260 -111 l65 0 465 259 c256 142 473 267 483
278 25 29 22 90 -5 115 -23 22 -76 52 -958 558 -611 350 -594 339 -608 370
-19 40 -17 587 2 623 17 33 511 322 550 322 40 0 535 -289 552 -322 11 -21 14
-80 14 -263 l0 -237 29 -29 c17 -16 40 -29 54 -29 13 0 111 50 218 111 398
229 745 432 763 448 10 9 27 34 37 56 16 35 19 69 19 288 0 270 -3 290 -56
338 -16 14 -148 95 -294 179 -146 85 -386 224 -535 310 -148 86 -372 216 -497
289 -233 135 -277 152 -339 132z"/>
<path d="M9877 9827 c-300 -546 -369 -672 -372 -675 -1 -2 -26 35 -55 82 -29
48 -54 86 -56 86 -2 0 -4 -367 -4 -815 l0 -814 43 23 c23 12 60 33 82 46 22
13 58 33 80 46 22 12 99 55 170 96 268 154 283 165 304 221 8 19 11 327 11
968 0 968 -1 990 -38 1013 -5 3 -79 -120 -165 -277z"/>
<path d="M6950 8624 c-162 -279 -299 -515 -304 -526 -7 -14 -5 -24 10 -38 15
-15 222 -138 429 -255 22 -13 81 -46 130 -75 50 -29 108 -63 130 -75 34 -20
104 -60 250 -145 17 -10 75 -43 130 -75 55 -32 156 -90 225 -130 69 -40 170
-98 225 -130 65 -37 115 -59 144 -63 26 -3 42 -1 40 5 -2 5 -87 160 -188 344
-337 612 -606 1101 -762 1386 -85 156 -156 283 -159 283 -3 0 -138 -228 -300
-506z"/>
</g>
</svg>
