<?xml version="1.0" standalone="no"?>
<!DOCTYPE svg PUBLIC "-//W3C//DTD SVG 20010904//EN"
 "http://www.w3.org/TR/2001/REC-SVG-20010904/DTD/svg10.dtd">
<svg version="1.0" xmlns="http://www.w3.org/2000/svg"
 width="204.000000pt" height="192.000000pt" viewBox="0 0 204.000000 192.000000"
 preserveAspectRatio="xMidYMid meet">

<g transform="translate(0.000000,192.000000) scale(0.100000,-0.100000)"
fill="#000000" stroke="none">
<path d="M0 960 l0 -960 1020 0 1020 0 0 960 0 960 -1020 0 -1020 0 0 -960z
m1431 589 l59 -32 0 -291 0 -291 -101 -58 c-70 -41 -107 -57 -122 -53 -12 3
-62 30 -112 59 l-90 54 -3 121 -3 121 41 26 c23 15 71 42 107 62 59 33 68 35
97 25 18 -7 35 -12 39 -12 4 0 7 68 7 150 0 103 3 150 11 150 6 0 38 -14 70
-31z m-1086 -297 l100 -57 3 -163 c1 -98 -1 -162 -7 -162 -5 0 -37 16 -70 36
l-61 36 0 82 c0 80 -1 82 -29 99 -36 21 -55 21 -86 1 -23 -15 -25 -22 -25 -94
0 -86 -1 -88 -82 -134 -26 -15 -52 -25 -58 -21 -12 7 -14 294 -2 311 9 13 193
123 207 124 6 0 55 -26 110 -58z m1560 -1 l100 -58 3 -44 3 -44 -64 -38 c-35
-20 -67 -37 -70 -37 -4 0 -7 17 -7 38 0 33 -4 40 -36 57 -34 18 -36 18 -70 0
-30 -16 -34 -22 -34 -61 l0 -42 100 -58 c55 -32 100 -61 100 -65 0 -5 -29 -24
-65 -44 l-65 -37 -64 35 c-36 20 -83 47 -105 62 l-41 25 0 125 0 125 103 60
c56 33 104 60 107 60 3 -1 50 -27 105 -59z m-1044 -7 c54 -30 99 -57 99 -60 0
-9 -60 -98 -60 -89 0 6 -13 25 -28 43 l-27 33 3 -145 3 -145 -38 -25 c-21 -14
-42 -26 -48 -26 -6 0 -33 42 -61 93 -29 50 -72 129 -98 175 -25 45 -46 86 -46
90 0 7 179 111 194 112 4 0 53 -25 107 -56z m979 -178 c0 -12 -9 -27 -20 -34
-42 -26 -83 34 -43 63 23 17 63 -1 63 -29z m-1262 -75 c-12 -20 -23 -38 -25
-40 -2 -2 -3 19 -3 47 0 51 0 52 25 40 l25 -11 -22 -36z m498 -175 c34 -19 81
-46 103 -61 l41 -25 0 -120 0 -119 -57 -37 c-31 -19 -77 -48 -103 -62 l-47
-26 -42 19 c-29 13 -38 22 -31 29 7 7 19 5 38 -6 28 -17 29 -16 125 38 l97 55
0 108 0 107 -97 56 -96 55 -81 -45 c-45 -24 -87 -49 -94 -55 -9 -7 -12 -40
-10 -120 l3 -111 33 -19 c56 -33 62 -22 62 108 0 70 4 115 10 115 15 0 13
-233 -2 -248 -18 -18 -48 -14 -93 11 l-40 23 -3 114 c-1 63 1 120 6 127 9 14
192 123 206 123 5 0 37 -15 72 -34z m44 -136 c21 -21 26 -40 12 -40 -5 0 -17
9 -27 20 -21 24 -77 27 -95 5 -18 -22 -4 -34 52 -41 51 -7 88 -31 88 -58 0
-24 -50 -56 -87 -56 -47 0 -92 25 -93 53 0 13 22 8 34 -8 16 -22 77 -30 100
-12 30 22 13 44 -41 52 -67 10 -83 21 -83 55 0 36 21 49 78 50 29 0 48 -6 62
-20z"/>
<path d="M1237 1122 c-25 -15 -27 -22 -25 -62 3 -38 8 -47 35 -63 32 -19 33
-19 68 3 30 19 35 27 35 60 0 33 -5 41 -34 59 -39 24 -42 25 -79 3z"/>
</g>
</svg>
